<svg width="42" height="40" viewBox="0 0 42 40" fill="none" xmlns="http://www.w3.org/2000/svg">
<path d="M36.75 4H27.345C26.4 1.68 23.925 0 21 0C18.075 0 15.6 1.68 14.655 4H5.25C2.775 4 0.75 5.8 0.75 8V36C0.75 38.2 2.775 40 5.25 40H36.75C39.225 40 41.25 38.2 41.25 36V8C41.25 5.8 39.225 4 36.75 4ZM21 4C22.2375 4 23.25 4.9 23.25 6C23.25 7.1 22.2375 8 21 8C19.7625 8 18.75 7.1 18.75 6C18.75 4.9 19.7625 4 21 4ZM25.5 32H9.75V28H25.5V32ZM32.25 24H9.75V20H32.25V24ZM32.25 16H9.75V12H32.25V16Z" fill="#5F6368"/>
</svg>
